<?xml version="1.0" encoding="UTF-8"?>
<svg width="1247px" height="1085px" viewBox="0 0 1247 1085" version="1.1" xmlns="http://www.w3.org/2000/svg" xmlns:xlink="http://www.w3.org/1999/xlink">
    <title>Group 9</title>
    <defs>
        <filter color-interpolation-filters="auto" id="filter-1">
            <feColorMatrix in="SourceGraphic" type="matrix" values="0 0 0 0 0.003922 0 0 0 0 0.670588 0 0 0 0 0.690196 0 0 0 1.000000 0"></feColorMatrix>
        </filter>
        <filter color-interpolation-filters="auto" id="filter-2">
            <feColorMatrix in="SourceGraphic" type="matrix" values="0 0 0 0 0.003922 0 0 0 0 0.670588 0 0 0 0 0.690196 0 0 0 1.000000 0"></feColorMatrix>
        </filter>
    </defs>
    <g id="Welcome" stroke="none" stroke-width="1" fill="none" fill-rule="evenodd">
        <g id="Landing---Concept-2-Copy-46" transform="translate(150.000000, 12.000000)">
            <g id="Group-9" transform="translate(-149.000000, -11.000000)">
                <g id="Group-5">
                    <g id="Group-13">
                        <g id="Group-11">
                            <g id="Group-12">
                                <g id="Group-10">
                                    <path d="M649.771468,962 C639.433312,962 609.658298,948.620857 561.27742,922.101735 L561.023896,923.283489 C559.432327,930.86641 551.868854,935.6497 544.798344,935.874796 L496.431551,933.68011 C492.530095,933.483151 488.839908,931.921548 486.093396,929.206328 L472.23407,915.672431 L398.514852,889.040761 C396.528912,888.323268 394.669735,887.225925 393.12042,885.819075 L365.598954,860.523913 C362.359478,857.499185 360.486215,853.264567 360.486215,848.818921 C360.486215,844.429549 362.387647,840.166794 365.655293,837.170203 L387.880919,816.897496 L404.965636,749.326492 L411.20515,647.583103 C411.430504,643.235937 413.458698,639.338963 416.655921,636.567468 L415.177029,635.062139 C411.768537,631.629425 410.176968,626.817998 410.75444,622.034708 L416.008026,579.688525 C408.247367,576.466838 397.219062,571.472521 381.232949,563.692641 C378.401929,562.285791 376.063872,560.062968 374.472303,557.291473 L356.95096,526.622144 C353.725568,521.022881 354.288956,514.030837 358.27492,508.952109 L366.444035,498.696173 L361.767921,489.017045 L347.457886,487.202208 C343.162058,486.653537 339.260602,484.37444 336.66902,480.885452 C334.133778,477.368327 333.091512,472.978955 333.866169,468.7162 L335.330976,460.781566 L331.837975,457.348852 L321.274465,460.612744 C315.527915,462.258759 309.330656,460.725292 305.203844,456.490674 L287.76701,438.384515 L251.83699,424.892824 L249.794711,426.679523 C246.048186,429.816799 241.104463,431.054827 236.315672,430.140374 C231.526881,429.183716 227.456408,426.046441 225.315537,421.727412 L218.047841,407.222788 L213.25905,405.436089 C206.596996,403.016307 202.413846,396.474455 202.949064,389.412068 C203.413858,383.306339 207.3294,378.115063 212.850594,375.89224 C212.653409,375.23102 212.498477,374.541664 212.3858,373.838239 C206.582911,372.192225 201.963136,367.296387 200.991293,360.895219 L198.329289,342.845334 C197.174345,334.981043 202.047644,327.426259 209.751965,325.287847 L259.54131,311.444443 C264.189255,310.206416 269.118893,311.036457 272.964011,313.779814 L281.851444,320.152845 L314.232124,306.914387 C321.274465,304.058481 329.556257,306.661154 333.654899,313.174869 L346.232518,333.124001 L357.260823,327.074546 C359.767896,325.695834 362.48624,325.25971 365.373599,325.119025 L399.05007,326.188231 C400.120506,312.991978 401.388127,298.220054 402.021938,291.340558 L385.218914,251.062443 C383.204805,246.138469 383.782277,240.511069 386.810483,236.09356 C389.726012,231.77453 394.627481,229.171858 399.881066,229.171858 C399.965575,229.171858 400.078252,229.171858 400.205014,229.171858 L435.88151,229.861215 C442.487225,230.0019 448.318283,234.250586 450.515493,240.468863 L458.459253,263.048805 L496.755499,275.640112 L508.304937,270.22374 C508.135921,269.815753 508.009159,269.393698 507.95282,268.929438 C506.685199,264.089874 507.840142,258.926735 511.037365,255.02976 L533.924971,227.174131 C535.713725,225.035719 538.051782,223.375636 540.671533,222.390841 L596.460952,201.344366 L603.559631,187.163318 L599.784937,139.457036 C599.179295,132.042937 603.79907,125.135304 610.954088,122.968755 L670.236508,104.665637 C677.166171,102.583499 684.92683,105.495678 688.645186,111.868709 L698.434039,128.849388 C704.574959,127.287784 711.58913,129.595018 715.434248,135.194281 L728.645678,154.341509 L748.152961,160.883361 C754.293881,162.923294 758.575624,168.522556 758.913657,175.008135 L759.026334,175.99293 L777.012471,177.723355 C785.590042,178.52526 791.899978,185.995633 791.322506,194.535212 L790.547849,205.747806 L798.167661,197.362981 C801.886017,193.381595 807.407212,191.538622 812.717136,192.467143 L823.055292,194.36639 C830.759612,195.829514 836.280807,202.610531 836.041367,210.446685 L835.548403,226.709871 L856.351476,242.311837 L882.267288,244.239221 L927.929822,250.288676 C932.88763,250.949895 937.28205,253.974623 939.704615,258.335858 L949.718823,276.385743 L982.014996,272.348083 C984.70517,271.996371 987.522106,272.37622 990.127772,273.473563 L1035.26917,292.381627 C1039.62134,294.196463 1042.91715,297.88241 1044.26928,302.356193 C1045.67775,306.829976 1044.95943,311.725813 1042.36785,315.622788 L1021.12815,348.106953 L1015.35343,441.367037 C1015.18442,444.560586 1014.02947,447.571245 1012.05762,450.075438 L999.958878,465.649267 C995.916575,470.86868 989.015082,472.978955 982.789653,471.093776 L981.634709,470.713927 C981.254423,472.331804 980.592443,473.823065 979.733277,475.215847 L932.605936,550.890306 L951.338561,540.91574 C955.493542,538.749191 960.282334,538.467821 964.676754,540.170109 C969.000751,541.900535 972.324735,545.445797 973.803627,549.849237 L987.831969,591.857777 C989.76157,597.54145 988.268594,603.872275 984.029105,608.092825 L977.268458,614.803499 L997.958854,633.261371 C1003.73357,638.42451 1004.94486,646.950021 1000.81804,653.491873 L982.381197,682.698078 C981.057237,684.83649 979.240313,686.62319 977.099442,687.889355 L985.240387,691.350206 C988.958743,692.911809 991.902441,695.852125 993.49401,699.509935 L997.564483,708.738871 C999.353237,712.692119 999.381407,717.179971 997.733499,721.245767 L989.31086,741.391858 L994.071482,749.959575 L1008.84631,753.279741 L1025.24088,748.144738 C1029.59305,746.737888 1034.26916,747.28656 1038.14245,749.650068 C1042.07207,751.957302 1044.74816,755.854276 1045.56507,760.31399 L1048.56511,776.338011 C1049.55104,781.613699 1047.84679,786.973797 1044.00167,790.687881 L990.465804,841.939425 L973.606441,871.455137 C971.324723,875.408385 967.465521,878.208017 962.958423,879.094332 L918.479002,887.999692 C915.859251,888.548364 913.000061,888.295131 910.366226,887.479158 L853.069746,868.388204 C850.759858,867.614436 848.647156,866.348272 846.858402,864.589709 L842.956945,860.636461 L839.323098,863.745599 C833.111753,868.993149 823.970796,868.697711 818.111569,863.08438 L811.998817,857.231884 C807.956514,858.877898 803.393078,858.934172 799.266266,857.119336 L784.744961,850.549347 L730.138654,884.158992 L730.138654,935.101029 C730.138654,942.543265 724.941407,948.972569 717.617373,950.548241 C701.574922,954.009092 662.87022,962 649.771468,962 Z" id="Path" fill="#E4F0F0" fill-rule="nonzero"></path>
                                    <g id="Group" transform="translate(295.000000, 167.000000)">
                                        <polyline id="Polygon" fill="#FFFFFF" opacity="0.568677326" points="377 53 657.592231 215 657.592231 539 377 701 96.4077692 539 96.4077692 215"></polyline>
                                        <polygon id="Polygon" stroke="#01ABB0" stroke-width="4" opacity="0.813181323" stroke-linejoin="round" transform="translate(377.000000, 377.000000) scale(1, -1) translate(-377.000000, -377.000000) " points="377 0 703.491577 188.5 703.491577 565.5 377 754 50.5084228 565.5 50.5084228 188.5"></polygon>
                                    </g>
                                    <line x1="1244.5" y1="154.5" x2="949.5" y2="325.5" id="Line-Copy" stroke="#01ABB0" stroke-linecap="square"></line>
                                    <line x1="479.5" y1="804.5" x2="0.5" y2="1082.5" id="Line-Copy-2" stroke="#01ABB0" stroke-linecap="square"></line>
                                    <line x1="345.5" y1="355.5" x2="502.5" y2="445.5" id="Line-2" stroke="#01ABB0" stroke-linecap="square"></line>
                                    <line x1="503.5" y1="630.5" x2="844.5" y2="444.5" id="Line-2-Copy" stroke="#01ABB0" stroke-linecap="square" transform="translate(674.000000, 537.500000) scale(-1, 1) translate(-674.000000, -537.500000) "></line>
                                    <line x1="504.5" y1="622.5" x2="845.5" y2="436.5" id="Line-2-Copy-2" stroke="#01ABB0" stroke-linecap="square"></line>
                                    <line x1="502.5" y1="445.5" x2="825.5" y2="255.5" id="Line-5" stroke="#0DB9BE" stroke-linecap="square"></line>
                                    <line x1="615.5" y1="200.5" x2="264.5" y2="0.5" id="Line-6-Copy-3" stroke="#01ABB0" stroke-linecap="square"></line>
                                    <line x1="1202.5" y1="961.5" x2="895.5" y2="789.5" id="Line-6-Copy" stroke="#01ABB0" stroke-linecap="square"></line>
                                    <line x1="835.5" y1="826.5" x2="528.5" y2="646.5" id="Line-6-Copy-2" stroke="#01ABB0" stroke-linecap="square"></line>
                                    <line x1="844.5" y1="448.5" x2="674.5" y2="346.5" id="Line-6-Copy-5" stroke="#01ABB0" stroke-linecap="square"></line>
                                    <line x1="844.5" y1="734.5" x2="674.5" y2="632.5" id="Line-6-Copy-6" stroke="#01ABB0" stroke-linecap="square" transform="translate(759.500000, 683.500000) scale(-1, 1) translate(-759.500000, -683.500000) "></line>
                                    <circle id="Oval-Copy-6" stroke="#01ABB0" stroke-width="5" fill="#F3F8F8" cx="671.637235" cy="534.401224" r="66"></circle>
                                    <circle id="Oval-Copy-6" stroke="#01ABB0" cx="671.637235" cy="534.401224" r="78"></circle>
                                    <g filter="url(#filter-1)" id="noun_tanker_1463420">
                                        <g transform="translate(295.000000, 248.000000)">
                                            <path d="M46.6611825,4.60139527 L45.6920577,4.60139527 L45.6920577,5.57053739 L46.6611825,5.57053739 L46.6611825,4.60139527 Z M49.5670807,4.60139527 L48.5979559,4.60139527 L48.5979559,5.57053739 L49.5670807,5.57053739 L49.5670807,4.60139527 Z M48.1145006,4.60139527 L47.1453758,4.60139527 L47.1453758,5.57053739 L48.1145006,5.57053739 L48.1145006,4.60139527 Z M45.2078643,4.60139527 L44.2387395,4.60139527 L44.2387395,5.57053739 L45.2078643,5.57053739 L45.2078643,4.60139527 Z M21.995369,18.6373485 L60.8932196,20.1135741 L60.8932196,17.1980285 L56.8336716,17.1980285 L56.8336716,13.6919927 L58.5283483,12.634277 L58.5283483,10.4140337 L55.9413091,10.4140337 L58.192513,3.63225315 L56.5103839,3.63225315 L53.4428419,12.8357818 L53.2007452,12.8357818 L53.2007452,3.14878926 L58.8922315,3.14878926 L59.4974732,1.69544513 L49.8091774,1.69544513 L49.8091774,0 L48.8400526,0 L48.8400526,1.69544513 L42.5440627,1.69544513 L42.5440627,0 L41.5749379,0 L41.5749379,1.69544513 L32.8565051,1.69544513 L33.4617468,3.14878926 L38.6690397,3.14878926 L38.6690397,7.02388152 L38.426943,7.02388152 C38.3819189,5.96764209 37.4519134,5.31293602 36.345502,5.13800329 L35.8435943,3.63299126 L34.1614652,3.63299126 L34.6980637,5.24945832 C33.8167727,5.52034572 33.137721,6.12633634 33.0993399,7.02388152 L32.3730498,7.02388152 C32.3723117,7.02388152 32.3723117,7.02388152 32.3715736,7.02388152 L32.3715736,6.0547394 L31.1603521,6.0547394 C31.1072089,4.8161861 29.8413681,4.12457439 28.4965506,4.11719327 L28.4958125,4.11719327 C28.3326924,4.11793138 28.1710486,4.12974118 28.0116191,4.15040834 L28.0116191,2.17964713 L27.0439705,2.17964713 L27.0439705,4.42498631 C26.3582759,4.74089859 25.8659635,5.29374509 25.832749,6.0547394 L24.6230037,6.0547394 C24.6222656,6.0547394 24.6222656,6.0547394 24.6215275,6.0547394 L24.6215275,5.08633539 L23.410306,5.08633539 C23.3571628,3.84778209 22.091322,3.15617039 20.7465044,3.14878926 L20.7457663,3.14878926 C20.5826463,3.14952737 20.4210025,3.16133717 20.261573,3.18200433 L20.261573,0.726303007 L19.2939244,0.726303007 L19.2939244,3.45584419 C18.6082298,3.77175647 18.1159173,4.32460297 18.0827029,5.08559728 L16.8714814,5.08559728 L16.8714814,6.05400129 C8.43574068,8.15393224 6.2000369,15.7424701 6.2000369,15.7424701 L6.2000369,17.3456511 L21.4048893,17.3456511 L21.995369,18.6373485 Z M54.895422,18.1642182 L50.2941089,18.1642182 L50.2941089,17.6800162 C50.2941089,17.6800162 48.9079577,12.954618 44.1774772,9.92983166 L45.3923892,9.92983166 C49.6556527,11.0436439 53.2088643,14.0647396 54.895422,18.1642182 Z M40.1216197,3.63299126 L51.2624956,3.63299126 L51.2624956,11.8105431 C49.7715343,10.6148004 47.8672373,9.56225148 45.449961,8.96068954 L45.449961,7.99228553 L44.2387395,7.99228553 C44.1863344,6.75373223 42.9197554,6.06212053 41.5749379,6.0547394 C41.0508872,6.05769185 40.5519318,6.17652801 40.1216197,6.38098526 L40.1216197,3.63299126 Z M41.5749379,6.97516608 C42.997994,6.97590419 43.2725671,7.79889997 43.270366,7.99228553 L39.8795098,7.99228553 C39.8773088,7.79889997 40.1518818,6.9766423 41.5749379,6.97516608 Z M39.5791165,8.96142765 C43.84238,10.1239553 47.3963297,13.2793876 49.0828874,17.5589657 L43.0282561,17.5589657 L43.0282561,16.7116122 C43.0282561,16.7116122 41.642105,11.986214 36.9116244,8.96142765 L39.5791165,8.96142765 Z M35.7624033,6.00676207 C37.1854594,6.00750018 37.4600325,6.83049596 37.4578314,7.02388152 L34.0669752,7.02388152 C34.0647742,6.82975785 34.3393472,6.00750018 35.7624033,6.00676207 Z M32.3125256,7.99228553 C36.5772653,9.1717898 40.1304769,12.3707707 41.8170346,16.7116122 L35.27821,16.7116122 L35.27821,15.7424701 C35.27821,15.7424701 33.8920589,11.0170718 29.1615783,7.99228553 L32.3125256,7.99228553 Z M28.4965506,5.03761994 L28.4965506,5.03761994 C29.9196066,5.03835806 30.1941797,5.86135384 30.1919786,6.0547394 L26.8011298,6.0547394 C26.7996595,5.86135384 27.0742326,5.03909617 28.4965506,5.03761994 Z M20.7465044,4.06921593 L20.7465044,4.06921593 C22.1695605,4.06995405 22.4441336,4.89294983 22.4419325,5.08633539 L19.0510837,5.08633539 C19.0496134,4.89221172 19.3241864,4.06995405 20.7465044,4.06921593 Z M7.42675849,15.7424701 C9.11257804,11.4016286 12.6665278,8.20264768 16.9305293,7.02314341 L17.0501015,7.02314341 C13.6784624,8.52446487 10.9511842,11.6548013 9.6063667,15.7424701 L7.42675849,15.7424701 Z M19.2710433,7.02388152 L24.5624795,7.02388152 C28.8264811,8.20338579 32.3796927,11.4016286 34.0662504,15.7432082 L13.4813898,15.7432082 C14.528015,11.6555394 16.6485753,8.52520298 19.2710433,7.02388152 Z M43.7545461,4.60139527 L42.7854213,4.60139527 L42.7854213,5.57053739 L43.7545461,5.57053739 L43.7545461,4.60139527 Z M42.3019661,4.60139527 L41.3328412,4.60139527 L41.3328412,5.57053739 L42.3019661,5.57053739 L42.3019661,4.60139527 Z M61.8128917,21.4052716 L21.1111256,19.9290459 L20.5944559,18.6373485 L3.69049816,18.6373485 C1.91389234,18.6373485 0.576455812,18.9141408 0,19.3385557 C0.958791421,23.9886664 3.90676135,29.645563 5.06483967,30.273697 C5.06483967,30.273697 5.90848755,30.9874521 9.32957934,31 C9.08379216,27.7412319 7.91464234,24.6647777 6.21701319,22.2954356 C6.17198911,22.2386009 6.18453681,22.0658825 6.29156125,22.1817662 C8.04750028,24.0728113 10.1355841,27.3721755 10.2595849,31 C24.1469294,30.9062597 60.4392883,28.5782519 60.4392883,28.5782519 C60.4392883,28.5782519 61.570795,27.6150146 61.9007256,24.5673468 C62.1671795,22.1205029 61.8128917,21.4052716 61.8128917,21.4052716 Z M5.02055369,24.1532656 C4.67733736,24.3710088 4.06619087,24.0359056 3.65506937,23.4026048 C3.24542408,22.7715184 3.1915428,22.0813829 3.53475913,21.8636396 C3.87797546,21.6458963 4.48912196,21.9817377 4.90024345,22.6143003 C5.30988875,23.2453868 5.36450812,23.9355223 5.02055369,24.1532656 Z M16.5253126,23.4026048 C16.1149292,24.0351675 15.5037827,24.3710088 15.1598283,24.1532656 C14.816612,23.9355223 14.8704933,23.2461249 15.2801386,22.6143003 C15.690522,21.9824758 16.3016685,21.6458963 16.6456229,21.8636396 C16.9895773,22.0813829 16.9349579,22.7715184 16.5253126,23.4026048 Z" id="Shape" fill="#31BBBF" fill-rule="nonzero"></path>
                                        </g>
                                    </g>
                                    <circle id="Oval" fill="#00ADDB" cx="569" cy="479" r="13"></circle>
                                    <circle id="Oval-Copy-32" fill="#00ADDB" cx="249" cy="937" r="13"></circle>
                                    <circle id="Oval-Copy-21" fill="#00ADDB" cx="763" cy="683" r="13"></circle>
                                    <circle id="Oval-Copy-27" fill="#00ADDB" cx="899" cy="789" r="13"></circle>
                                    <circle id="Oval-Copy-15" fill="#00ADDB" cx="617.5" cy="200.5" r="16"></circle>
                                    <circle id="Oval-Copy-30" fill="#00ADDB" cx="1088.5" cy="243.5" r="13"></circle>
                                    <circle id="Oval-Copy-8" fill="#03A988" cx="759" cy="295" r="9"></circle>
                                    <circle id="Oval-Copy-16" fill="#03A988" cx="550" cy="661" r="9"></circle>
                                    <circle id="Oval-Copy-26" fill="#03A988" cx="1069" cy="884" r="9"></circle>
                                    <circle id="Oval-Copy-31" fill="#03A988" cx="431" cy="92" r="9"></circle>
                                    <circle id="Oval-Copy-28" fill="#03A988" cx="479" cy="808" r="19"></circle>
                                    <circle id="Oval-Copy-29" fill="#03A988" cx="950" cy="325" r="19"></circle>
                                    <g id="Group-2" transform="translate(461.000000, 404.000000)"></g>
                                    <g filter="url(#filter-2)" id="noun_weather_1979202">
                                        <g transform="translate(863.000000, 167.000000)">
                                            <path d="M16.3506323,32.2267006 C14.6272063,30.1739874 13.5890411,27.5249861 13.5890411,24.6331386 C13.5890411,18.112928 18.866671,12.8272528 25.3769575,12.8272528 C30.5050494,12.8272528 34.8683317,16.1067849 36.4899125,20.6859442 C36.8889833,20.651622 37.2921593,20.6341463 37.6986301,20.6341463 C42.8075725,20.6341463 47.4059595,23.3953934 49.8672593,27.6889828 C54.28167,28.0388717 57.8594876,31.3658189 58.5992555,35.6653171 C61.8369099,37.2537522 64,40.5810302 64,44.3414634 C64,49.3797447 60.1481644,53.5170101 55.2328767,53.9606257 L19.2876712,54 C13.9615279,54 9.64383562,49.6757258 9.64383562,44.3414634 C9.64383562,40.5810302 11.8069257,37.2537522 15.0445801,35.6653171 C15.2585817,34.4215493 15.7100831,33.2591684 16.3506323,32.2267006 Z M18.0696446,30.1621952 C19.7815782,28.6064786 22.0542283,27.6585366 24.5479452,27.6585366 C24.8739635,27.6585366 25.1980548,27.6748367 25.5192658,27.7071152 C27.3388605,24.5218959 30.3395009,22.1710366 33.8589463,21.1688155 C32.4942552,17.8207746 29.2107178,15.4613992 25.3769575,15.4613992 C20.3192557,15.4613992 16.2191781,19.5677268 16.2191781,24.6331386 C16.2191781,26.7095871 16.9081553,28.6248711 18.0696446,30.1621952 Z M26.739726,8.34146341 C26.739726,9.06886284 26.1509499,9.65853659 25.4246575,9.65853659 C24.6983652,9.65853659 24.109589,9.06886284 24.109589,8.34146341 L24.109589,1.31707317 C24.109589,0.589673745 24.6983652,0 25.4246575,0 C26.1509499,0 26.739726,0.589673745 26.739726,1.31707317 L26.739726,8.34146341 Z M1.31506849,25.902439 C0.58877622,25.902439 0,25.3127653 0,24.5853659 C0,23.8579664 0.58877622,23.2682927 1.31506849,23.2682927 L8.32876712,23.2682927 C9.05505939,23.2682927 9.64383562,23.8579664 9.64383562,24.5853659 C9.64383562,25.3127653 9.05505939,25.902439 8.32876712,25.902439 L1.31506849,25.902439 Z M34.8923075,11.2350884 C34.5291613,11.8650348 33.724878,12.0808703 33.0958904,11.7171706 C32.4669028,11.3534709 32.2513959,10.5479616 32.6145419,9.91801521 L36.1213912,3.83471482 C36.4845373,3.20476843 37.2888206,2.98893286 37.9178082,3.35263259 C38.5467958,3.7163323 38.7623028,4.5218416 38.3991568,5.15178799 L34.8923075,11.2350884 Z M4.26723428,14.3113505 C3.63824672,13.9476508 3.42273966,13.1421415 3.78588581,12.5121951 C4.14903194,11.8822487 4.95331521,11.6664132 5.58230277,12.0301129 L11.656344,15.542308 C12.2853315,15.9060077 12.5008386,16.711517 12.1376924,17.3414634 C11.7745463,17.9714099 10.970263,18.1872453 10.3412755,17.8235457 L4.26723428,14.3113505 Z M40.5080395,17.8235457 C39.8790521,18.1872453 39.0747688,17.9714099 38.7116227,17.3414634 C38.3484765,16.711517 38.5639836,15.9060077 39.192971,15.542308 L45.2670124,12.0301129 C45.8959998,11.6664132 46.7002831,11.8822487 47.0634293,12.5121951 C47.4265754,13.1421415 47.2110683,13.9476508 46.5820809,14.3113505 L40.5080395,17.8235457 Z M5.58230277,38.0186677 C4.95331521,38.3823673 4.14903194,38.1665318 3.78588581,37.5365854 C3.42273966,36.9066389 3.63824672,36.1011296 4.26723428,35.7374299 L10.3412755,32.2252348 C10.970263,31.8615352 11.7745463,32.0773706 12.1376924,32.7073171 C12.5008386,33.3372635 12.2853315,34.1427728 11.656344,34.5064726 L5.58230277,38.0186677 Z M12.4501584,5.15178799 C12.0870122,4.5218416 12.3025193,3.7163323 12.9315068,3.35263259 C13.5604944,2.98893286 14.3647777,3.20476843 14.7279238,3.83471482 L18.2347732,9.91801521 C18.5979192,10.5479616 18.3824123,11.3534709 17.7534247,11.7171706 C17.1244371,12.0808703 16.3201538,11.8650348 15.9570077,11.2350884 L12.4501584,5.15178799 Z M55.1039225,51.3266189 C58.6453993,50.9523835 61.369863,47.9464407 61.369863,44.3414634 C61.369863,41.6447124 59.8312162,39.2029574 57.44221,38.0308801 L56.2355072,37.4388561 L56.0073204,36.112644 C55.4670192,32.9724379 52.8480636,30.5676256 49.6597592,30.3149186 L48.2769613,30.2053174 L47.5863136,29.000524 C45.5620964,25.4693987 41.8023505,23.2682927 37.6986301,23.2682927 C33.5873901,23.2682927 29.8226313,25.4783952 27.8021714,29.0152312 L26.9547024,30.4987348 L25.2566844,30.3281011 C25.0220788,30.3045255 24.7856198,30.2926829 24.5479452,30.2926829 C21.1216363,30.2926829 18.2113371,32.7718048 17.6365152,36.112644 L17.4083284,37.4388561 L16.2016256,38.0308801 C13.8126195,39.2029574 12.2739726,41.6447124 12.2739726,44.3414634 C12.2739726,48.2204843 15.4133958,51.3651358 19.2863451,51.3658535 L55.1039225,51.3266189 Z" id="Shape" fill="#000000" fill-rule="nonzero"></path>
                                        </g>
                                    </g>
                                </g>
                                <g id="Group" transform="translate(455.000000, 539.000000)">
                                    <path d="M3.75802577,71.1563494 L50.2537672,71.1563494 C44.0349421,61.6689954 40.7525661,51.1253398 40.7525661,40.5472228 C40.7525661,36.9992421 41.1220791,33.4063453 41.8493121,29.8436506 L12.2371697,29.8436506 C12.9604717,33.4063453 13.3299847,36.9992421 13.3299847,40.5472228 C13.3299847,51.1656094 10.0279537,61.7077161 3.75802577,71.1563494 Z M52.5573269,74 L1.44267307,74 C0.644682245,74 0,73.3634312 0,72.5781747 L0,71.9919428 C0,71.7011501 0.0904127539,71.4157783 0.259445294,71.1764842 C6.92247216,61.7929017 10.4446386,51.2016197 10.4446386,40.5472228 C10.4446386,37.2841801 10.1163069,33.980172 9.464209,30.6983807 C9.33468272,30.0465182 9.1923826,29.3955322 9.0373444,28.7459178 C8.93513868,28.3238619 9.0373444,27.8789606 9.31251365,27.5389926 C9.5876829,27.1990246 10.0004368,27 10.4446386,27 C11.1408723,27 11.6630476,27 12.0111644,27 C19.0402041,27 29.5837637,27 43.6418432,27 C44.082114,27 44.4987989,27.1990246 44.7739681,27.5389926 C45.0452064,27.8789606 45.1474121,28.3238619 45.0452064,28.7459178 C44.1135619,32.6660048 43.6379122,36.6360416 43.6379122,40.5472228 C43.6379122,51.1613501 47.1325617,61.7553426 53.7444857,71.1838411 C53.9095872,71.4215864 54,71.7038605 54,71.9919428 L54,72.5781747" id="Shape" fill="#314552" fill-rule="nonzero"></path>
                                    <path d="M-8.42895831,58.3347609 C-3.82623563,59.5865561 1.27879035,61.2323388 11.0630871,61.3353175 C20.8473839,61.4382962 32.934168,60.0656017 37.23931,58.5404486" id="Path-3-Copy-4" stroke="#314552" stroke-linecap="round" transform="translate(14.405176, 59.837763) scale(-1, 1) rotate(77.000000) translate(-14.405176, -59.837763) "></path>
                                    <path d="M43.5606275,29 C42.7644624,29 42.121255,28.3453459 42.121255,27.53778 L42.121255,23.92444 L11.874823,23.92444 L11.874823,27.53778 C11.874823,28.3453459 11.2355376,29 10.4393725,29 C9.63928533,29 9,28.3453459 9,27.53778 L9,22.46222 C9,21.6546541 9.63928533,21 10.4393725,21 L43.5606275,21 C44.3567927,21 45,21.6546541 45,22.46222 L45,27.53778 C45,28.3453459 44.3567927,29 43.5606275,29 Z" id="Path" fill="#314552" fill-rule="nonzero"></path>
                                    <path d="M73.5797972,74 L57.4506272,74 C56.6650654,74 56.0304243,73.350807 56.0304243,72.5499778 C56.0304243,71.7495434 56.6650654,71.0999556 57.4506272,71.0999556 L71.2540699,71.0999556 C66.250467,63.1639271 63.7196424,54.5956859 63.7196424,45.5985982 C63.7196424,42.7028975 63.9982653,39.7854781 64.5516413,36.9000444 L47.4202028,36.9000444 C46.634641,36.9000444 46,36.2504566 46,35.4500222 C46,34.649193 46.634641,34 47.4202028,34 L66.3085135,34 C66.7457966,34 67.1521217,34.2025766 67.4230051,34.5508663 C67.6938884,34.8975764 67.7906325,35.3528802 67.6900187,35.7833062 C66.9392848,39.0288761 66.5561783,42.32973 66.5561783,45.5985982 C66.5561783,54.6620268 69.3114492,63.2784441 74.7445957,71.2089442 C74.9109955,71.4510094 75,71.7420406 75,72.038995 L75,72.5499778 C75,73.350807 74.365359,74 73.5797972,74 Z" id="Path" fill="#314552" fill-rule="nonzero"></path>
                                    <path d="M66.522328,38 C65.704978,38 65.0446559,37.3519157 65.0446559,36.553334 L65.0446559,32.893332 L47.477672,32.893332 C46.6603221,32.893332 46,32.2452477 46,31.446666 C46,30.6476903 46.6603221,30 47.477672,30 L66.522328,30 C67.3396779,30 68,30.6476903 68,31.446666 L68,36.553334 C68,37.3519157 67.3396779,38 66.522328,38 Z" id="Path" fill="#314552" fill-rule="nonzero"></path>
                                    <path d="M14.4156454,21 C13.9217115,21 13.4432131,20.7383692 13.1808107,20.2720691 C12.4051801,18.8896683 12,17.3505247 12,15.8247376 C12,10.9594253 15.9244591,7 20.7480323,7 C22.4266357,7 24.0203443,7.46040743 25.3516505,8.33290308 C26.0076564,8.76266906 26.1967405,9.65559235 25.7761249,10.3249902 C25.3555094,10.9987092 24.4756896,11.1845221 23.8158248,10.7590774 C22.9437228,10.1874965 21.8825367,9.88501038 20.7480323,9.88501038 C17.4872968,9.88501038 14.8285433,12.549638 14.8285433,15.8247376 C14.8285433,16.8653684 15.1063811,17.879679 15.6466213,18.8429205 C16.0325072,19.5339245 15.7932579,20.4154554 15.1179577,20.8098659 C14.8941439,20.9387171 14.6510358,21 14.4156454,21 Z" id="Path" fill="#314552" fill-rule="nonzero"></path>
                                    <path d="M39.4986516,12 C38.6682055,12 38.001394,11.3652529 38.001394,10.5831056 C38.001394,6.30927039 34.3523401,2.83378887 29.8687492,2.83378887 C26.1174236,2.83378887 22.9347286,5.12620985 21.9529204,8.537252 C21.7401953,9.29084536 20.9097492,9.74307856 20.11203,9.53355413 C19.3102199,9.32981768 18.8356793,8.55152899 19.0524953,7.79639217 C20.3738455,3.20537638 24.8206186,0 29.8687492,0 C36.0091415,0 41,4.74729091 41,10.5831056 C41,11.3652529 40.3331886,12 39.4986516,12 Z" id="Path" fill="#314552" fill-rule="nonzero"></path>
                                    <path d="M46.5575977,14 C46.4497893,14 46.3382633,13.9877222 46.2230198,13.9587019 C45.4943836,13.7760232 45.0482798,13.0337743 45.2304389,12.3030591 C45.2713317,12.1438198 45.2713317,11.8104589 45.2713317,11.5887143 C45.2713317,8.6695742 42.14117,6.53249277 39.1225343,8.54642414 C38.497989,8.96424142 37.6503918,8.79681687 37.2303107,8.16692848 C36.8102296,7.54001654 36.9812361,6.69173212 37.6094989,6.27354279 C38.8734597,5.42935097 40.1820308,5 41.4980371,5 C45.0854552,5 48,7.95522943 48,11.5887143 C48,11.9652336 48,12.4801571 47.881039,12.9645721 C47.7249027,13.5862753 47.1672729,14 46.5575977,14 Z" id="Path" fill="#314552" fill-rule="nonzero"></path>
                                    <path d="M51.3529888,27 C49.9772209,27 48.7306687,26.6754578 47.6475365,26.0359084 C46.9976572,25.6506248 46.8038336,24.849334 47.2180841,24.2450993 C47.6323347,23.6405114 48.49504,23.4657036 49.1449193,23.8467493 C49.7833972,24.2239105 50.5016849,24.4064875 51.3529888,24.4064875 C53.477448,24.4064875 55.2104596,22.7982555 55.2104596,20.8223974 C55.2104596,20.4162782 55.1496521,20.0207534 55.0356382,19.7068056 C54.7924085,19.0277037 55.1876568,18.2931577 55.9173458,18.0671435 C56.6508353,17.8400699 57.4413318,18.2076961 57.6845615,18.8871511 C57.893587,19.4663124 58,20.1351731 58,20.8223974 C58,24.2292077 55.0204364,27 51.3529888,27 Z" id="Path" fill="#314552" fill-rule="nonzero"></path>
                                    <path d="M57.9985983,23 C57.4274038,23 56.5783309,22.9111065 55.7832899,22.4855702 C55.0847345,22.1118885 54.7991372,21.2040228 55.1503447,20.4583055 C55.4976927,19.7097073 56.3544844,19.4096919 57.0491804,19.7817275 C57.2846052,19.9072483 57.6280938,19.9776223 57.9985983,19.9776223 C59.7430572,19.9776223 61.167184,18.4619065 61.167184,16.6000823 C61.167184,15.7654715 61.8001293,15 62.583592,15 C63.3670547,15 64,15.5876846 64,16.4222954 C64,20.1290704 61.3099827,23 57.9985983,23 Z" id="Path" fill="#314552" fill-rule="nonzero"></path>
                                    <path d="M63.7664327,19 C63.2890874,19 62.92807,18.9099588 62.611177,18.8302628 C61.8289726,18.6348542 61.2714012,17.8509212 61.4719665,17.0999393 C61.6725317,16.352789 62.3785213,15.8711645 63.1727596,16.0635078 C63.1727596,16.0635078 63.349257,16.1075705 63.3572796,16.1091031 C63.585924,16.166193 63.6741727,16.1861171 63.7664327,16.1861171 C65.5795423,16.1861171 67.0557024,14.7377949 67.0557024,12.9588109 C67.0557024,11.2537757 65.5514632,9.81388295 63.7664327,9.81388295 C62.9521378,9.81388295 62.1097639,10.15489 61.5160908,10.7250231 C60.9424742,11.2752323 60.0118516,11.2767649 59.4302124,10.7265558 C58.8565959,10.1774961 58.8565959,9.28666305 59.4302124,8.73798653 C60.5854681,7.6329704 62.1659221,7 63.7664327,7 C67.2041207,7 70,9.67288228 70,12.9588109 C70,16.2899518 67.2041207,19 63.7664327,19 Z" id="Path" fill="#314552" fill-rule="nonzero"></path>
                                    <path d="M47.4091778,12 C47.2287707,12 47.0483635,11.9633726 46.8717948,11.8868255 C46.1540046,11.5682905 45.8085441,10.684706 46.1079432,9.91306137 C47.4821084,6.32110705 50.6948912,4 54.2915191,4 C57.3699563,4 60.248794,5.74823808 61.8033663,8.56402078 C62.1987267,9.28216472 61.979935,10.210196 61.3082062,10.6340861 C60.6403159,11.0612686 59.7728261,10.8225732 59.3774658,10.1044292 C58.3295688,8.20268532 56.3757976,7.02237769 54.2915191,7.02237769 C51.8080418,7.02237769 49.670025,8.57019394 48.7104125,11.0645609 C48.4877823,11.6477185 47.9619147,12 47.4091778,12 Z" id="Path" fill="#314552" fill-rule="nonzero"></path>
                                </g>
                                <g id="Group" transform="translate(638.000000, 235.000000)" fill="#213B4F" fill-rule="nonzero">
                                    <path d="M7.7034066,53.0472197 C6.72696564,53.0472197 5.93515771,53.6663475 5.73192043,54.5896034 L2.13566356,69.4824017 C1.97639995,70.1107287 2.11057601,70.6771707 2.53227223,71.1769889 C2.95904232,71.7244752 3.43824257,71.9547317 4.11165985,71.9547317 L47.8851925,71.9547317 C48.5687576,71.9547317 49.0806562,71.7163911 49.4079217,71.2494667 C49.8882495,70.6771707 50.0224256,70.1107287 49.8651352,69.4927159 L46.2700058,54.6091167 C46.0625403,53.6663475 45.271578,53.0472197 44.2942914,53.0472197 L7.7034066,53.0472197 Z M47.8851925,74 L4.11165985,74 C2.79019471,74 1.71509487,73.4815048 0.917085531,72.4567799 C0.0990625301,71.4861347 -0.19127644,70.2476002 0.125277602,68.994849 L3.71420553,54.1341082 C4.11786126,52.297353 5.76010868,51 7.7034066,51 L44.2942914,51 C46.2387169,51 47.8809643,52.297353 48.2877207,54.1550153 L51.8766486,69.0051631 C52.1912295,70.2476002 51.8994811,71.488086 51.0543974,72.4899525 C50.3936648,73.4377394 49.2483763,74 47.8851925,74 Z" id="Shape"></path>
                                    <path d="M47.4884585,60 L4.03639737,60 C3.46429022,60 3,59.5537393 3,59.0004087 C3,58.4468056 3.46429022,58 4.03639737,58 L47.4884585,58 C48.0616946,58 48.5240091,58.4468056 48.5240091,59.0004087 C48.5240091,59.5537393 48.0616946,60 47.4884585,60 Z" id="Path"></path>
                                    <path d="M49,67 L2.05101525,67 C1.47055258,67 1,66.5537077 1,66 C1,65.4462923 1.47055258,65 2.05101525,65 L49,65 C49.5816076,65 50.0501566,65.4462923 50.0501566,66 C50.0501566,66.5537077 49.5816076,67 49,67 Z" id="Path"></path>
                                    <path d="M13.1048628,74 C13.0600572,74 13.0143494,73.995819 12.9683409,73.9919168 C12.3630137,73.9213979 11.9336012,73.4110419 12.0084777,72.8491207 L14.8008618,51.8986028 C14.8748362,51.3386327 15.4251338,50.9341944 16.0316639,51.0088942 C16.6366905,51.077462 17.0664037,51.5886542 16.9915271,52.1494604 L14.199143,73.1019295 C14.1308821,73.6184176 13.6542583,74 13.1048628,74 Z" id="Path"></path>
                                    <path d="M39.8933518,74 C39.3453416,74 38.8688763,73.618429 38.7997362,73.1019564 L36.0082808,52.1501148 C35.934331,51.5893253 36.3639013,51.0781485 36.9678248,51.0095827 C37.5693435,50.9318192 38.1242677,51.3362454 38.2003218,51.8992646 L40.9917772,72.8491552 C41.0654264,73.4110596 40.6361567,73.9214003 40.0322332,73.9919171 C39.9850376,73.9958192 39.9405474,74 39.8933518,74 Z" id="Path"></path>
                                    <path d="M26,74 C25.4479847,74 25,73.5436685 25,72.9775052 L25,52.0236098 C25,51.4585616 25.4479847,51 26,51 C26.5522876,51 27,51.4585616 27,52.0236098 L27,72.9775052 C27,73.5436685 26.5522876,74 26,74 Z" id="Path"></path>
                                    <path d="M22.0634515,83 C22.0116541,83 21.9601461,82.9946171 21.9074806,82.9842103 C21.3270029,82.8772708 20.9256456,82.2097964 21.0115888,81.4888522 L21.8869353,74.1268963 C21.9720103,73.408823 22.5082144,72.9013989 23.0927433,73.0162332 C23.6729317,73.1231726 24.0745783,73.7906471 23.9883458,74.5115912 L23.1129992,81.8731883 C23.0357373,82.527385 22.5822933,83 22.0634515,83 Z" id="Path" transform="translate(22.500000, 78.000000) rotate(-2.000000) translate(-22.500000, -78.000000) "></path>
                                    <path d="M29.4106189,83 C29.3588216,83 29.3073136,82.9946171 29.2546481,82.9842103 C28.6741703,82.8772708 28.2728131,82.2097964 28.3587562,81.4888522 L29.2341028,74.1268963 C29.3191778,73.408823 29.8553818,72.9013989 30.4399107,73.0162332 C31.0200991,73.1231726 31.4217457,73.7906471 31.3355133,74.5115912 L30.4601667,81.8731883 C30.3829047,82.527385 29.9294607,83 29.4106189,83 Z" id="Path-Copy" transform="translate(29.847167, 78.000000) scale(-1, 1) rotate(-2.000000) translate(-29.847167, -78.000000) "></path>
                                    <path d="M23.0632616,53 C23.0299815,53 22.9952544,53 22.9608168,52.9962645 C22.3762445,52.9445016 21.9488122,52.4660948 22.0049543,51.9279205 L23.8805052,33.8909427 C23.9363579,33.3530352 24.4358488,32.9301268 25.0389422,33.0096389 C25.6235144,33.061135 26.0509467,33.5395418 25.995094,34.0777161 L24.1195431,52.1146939 C24.0665844,52.6208499 23.6047144,53 23.0632616,53 Z" id="Path"></path>
                                    <path d="M30.8013806,53 C30.1901339,53 29.6685366,52.6039276 29.6127909,52.0755536 L27.0051307,28.1148346 C26.9444951,27.5556735 27.4282765,27.0603056 28.087119,27.0087163 C28.7576975,26.9321645 29.3288464,27.3698412 29.3894821,27.9290023 L31.9948603,51.8897213 C32.055496,52.4491597 31.5726926,52.9445277 30.912872,52.9961169 C30.8766862,53 30.8401744,53 30.8013806,53 Z" id="Path"></path>
                                    <path d="M37.987203,53 L14.0139014,53 C13.4539363,53 13,52.5539804 13,52 C13,51.4462923 13.4539363,51 14.0139014,51 L37.987203,51 C38.5479966,51 39,51.4462923 39,52 C39,52.5539804 38.5479966,53 37.987203,53 Z" id="Path"></path>
                                    <path d="M25.9771055,21.9463138 C25.8934383,21.9463138 25.8108302,21.9561085 25.7308698,21.9778157 C25.7268983,21.9796688 25.7229267,21.9817865 25.7200143,21.9817865 C25.1587029,22.1295014 24.8277409,22.7261845 24.9823663,23.3133376 C25.0512064,23.5751476 25.221718,23.7938078 25.4621287,23.9259041 C25.7091587,24.0617064 25.9929917,24.0932083 26.26491,24.0026734 C26.5860754,23.9179624 26.8095409,23.7485404 26.9384837,23.5161146 C27.0263872,23.3564873 27.1079362,23.0965304 27.003617,22.763775 C26.9199498,22.4545798 26.7454667,22.229831 26.4981719,22.0882047 C26.3348091,21.9934343 26.153442,21.9463138 25.9771055,21.9463138 Z M25.9553944,26 C25.4679537,26 24.9733642,25.8758454 24.523256,25.627801 C23.812085,25.2357479 23.307699,24.5895618 23.1017083,23.8075734 C22.6762237,22.1885343 23.6248929,20.527934 25.2156283,20.1046437 C25.9585716,19.8936603 26.7780333,20.0061671 27.4656398,20.4019264 C28.1680734,20.8037742 28.6674288,21.4518133 28.8702422,22.2240071 C29.1008565,22.9527864 29.0240733,23.7604529 28.6398927,24.4537595 C28.2517406,25.1589786 27.6006723,25.661156 26.8045103,25.8700216 C26.5307386,25.9565856 26.244258,26 25.9553944,26 Z" id="Shape"></path>
                                    <path d="M23.2529491,19 C22.9132418,19 22.5809318,18.8415368 22.3797818,18.548653 C18.7152673,13.2103543 18.0503627,7.54037558 20.2891876,0.7015939 C20.427745,0.278660975 20.8553665,-0.00985140782 21.3011968,0.000257454082 C21.7635288,0.00626812872 22.1658288,0.303250099 22.2907295,0.732193698 L26.960994,16.7230472 C27.116622,17.2558115 26.7925629,17.8107061 26.238049,17.9590604 C25.680121,18.111513 25.1054067,17.7984115 24.9497787,17.2640079 L21.3561076,4.96070331 C20.5600431,9.60777445 21.4599545,13.5638912 24.1241248,17.4426888 C24.4416402,17.9063304 24.3082041,18.5284353 23.8265253,18.8333404 C23.6498433,18.9450843 23.4498314,19 23.2529491,19 Z" id="Path"></path>
                                    <path d="M11.018916,40 C10.6554725,40.0020537 10.3128369,39.7933827 10.1302828,39.4457947 C9.90916495,39.0257925 9.97436282,38.5023415 10.2889772,38.1568224 L22.0343044,25.326509 C22.4285434,24.8997087 23.0727539,24.8887727 23.475316,25.3087749 C23.8778782,25.7267081 23.8862014,26.4127215 23.4939044,26.8439553 L14.4777324,36.6922827 C18.9367119,34.880155 21.9663321,31.933046 24.0698651,27.4510521 C24.3226109,26.9163695 24.9357484,26.6943979 25.4365235,26.9672072 C25.940073,27.2352874 26.1434349,27.8864238 25.8926312,28.4228798 C22.9953487,34.5940451 18.3402207,38.2647047 11.243918,39.9736792 C11.1684549,39.9934823 11.0932693,40 11.018916,40 Z" id="Path"></path>
                                    <path d="M47.9444312,30 C47.8567486,30 47.7690661,29.9897739 47.6813835,29.9693218 L30.7931508,25.7904481 C30.2282453,25.6505995 29.888152,25.0972857 30.0336188,24.5544743 C30.1770732,24.011663 30.7503157,23.6907851 31.3192461,23.8245533 L44.303737,27.0388589 C40.474741,24.0135976 36.3953466,22.7798349 31.4946112,23.0739038 C30.9064194,23.1148081 30.4102225,22.6850364 30.3760119,22.1256422 C30.3374891,21.5665244 30.7802141,21.0850695 31.3620812,21.0502455 C38.1087497,20.6204738 43.6298751,22.9401356 48.7232246,28.3013652 C49.0397443,28.6324691 49.088904,29.1241501 48.84943,29.5085954 C48.654516,29.8192471 48.3080981,30 47.9444312,30 Z" id="Path"></path>
                                </g>
                            </g>
                            <path d="M463,571 L464.763035,571 C464.939066,571.863928 465.478045,572.295892 466.37997,572.295892 C467.732857,572.295892 467.732857,571.586605 467.624329,571 C467.551977,570.60893 468.6772,570.60893 471,571 L471,577 L468.27159,577 C468.27159,576.008399 467.796459,575.512598 466.846198,575.512598 C465.895937,575.512598 465.413414,576.008399 465.398628,577 L463,577 L463,571 Z" id="Rectangle" fill="#F3F8F8"></path>
                            <circle id="Oval-Copy-5" stroke="#314552" stroke-width="2" fill="#F3F7F7" cx="493" cy="631" r="42"></circle>
                            <circle id="Oval-Copy-19" fill="#00ADDB" cx="505.5" cy="616.5" r="8.5"></circle>
                            <circle id="Oval-Copy-17" fill="#03A988" cx="485" cy="638" r="19"></circle>
                            <g id="Group-3" transform="translate(461.000000, 282.411873)">
                                <g id="noun-trash-2419618">
                                    <path d="M25.9017859,80.588138 C25.0648869,80.5915014 24.3872747,81.2690428 24.3839284,82.1058638 L24.3839284,86.6828143 L4.57142857,86.6828143 C2.06521509,86.6828143 0,88.7478404 0,91.253813 L0,94.3011455 C0,95.1426085 0.682267581,95.824728 1.52380952,95.8248118 L6.27083337,95.8248118 L12.1994042,143.248924 C12.2931032,144.016491 12.946912,144.592193 13.7202377,144.588105 L50.2886903,144.588105 C51.0563429,144.584731 51.7016229,144.010856 51.7946423,143.248924 L57.7261897,95.8248118 L62.4761905,95.8248118 C63.3177326,95.824728 64,95.1426085 64,94.3011455 L64,91.253813 C64,88.7478404 61.9347855,86.6828143 59.4285714,86.6828143 L39.6249996,86.6828143 L39.6249996,82.1058638 C39.621635,81.2643988 38.9367832,80.5849403 38.0952381,80.588138 L25.9017859,80.588138 Z M27.4315474,83.6354818 L36.5773806,83.6354818 L36.5773806,86.6828143 L27.4315474,86.6828143 L27.4315474,83.6354818 Z M4.57142857,89.7301468 L59.4285714,89.7301468 C60.2991208,89.7301468 60.952381,90.3833797 60.952381,91.253813 L60.952381,92.7774793 L3.04761905,92.7774793 L3.04761905,91.253813 C3.04761905,90.3833797 3.70088061,89.7301468 4.57142857,89.7301468 Z M9.34226194,95.8277875 L54.6517851,95.8277875 L48.9374994,141.537775 L15.056547,141.537775 L9.34226194,95.8277875 Z" id="Shape" fill="#314552" fill-rule="nonzero"></path>
                                    <path d="M5,100.588127 L6.69142888,99.7145223 C6.91519786,101.160853 7.47804482,101.884019 8.37996978,101.884019 C9.73285722,101.884019 9.95257532,100.01133 9.84404698,99.4247248 C9.77169475,99.0336546 10.8236791,99.4214552 13,100.588127 L13,106.588127 L10.6241452,106.588127 C10.4916427,105.321955 9.95026092,104.688868 9,104.688868 C8.04973908,104.688868 7.51594834,105.321955 7.39862778,106.588127 L5,106.588127 L5,100.588127 Z" id="Rectangle-Copy" fill="#F3F8F8"></path>
                                    <path d="M47.9808217,86.5668271 L49.3877075,85.7646854 C49.6095464,86.939709 50.1714283,87.5272208 51.0733533,87.5272208 C52.4262407,87.5272208 52.5268747,86.0327576 52.4183464,85.4461524 C52.3459941,85.0550822 53.0736166,85.2295936 54.6012137,85.9696865 L55.9808217,92.5668271 L53.1721594,92.6182043 C53.0937734,91.1503025 52.57945,90.4163515 51.6291891,90.4163515 C50.6789282,90.4163515 50.1623511,91.0596516 50.0794579,92.3462516 L47.9808217,92.5668271 L47.9808217,86.5668271 Z" id="Rectangle-Copy-2" fill="#F3F8F8" transform="translate(51.980822, 88.930777) rotate(96.000000) translate(-51.980822, -88.930777) "></path>
                                    <path d="M220.425229,5.0019563 L222.406026,5.58078295 C222.304306,6.62217251 222.704409,7.1428673 223.606334,7.1428673 C224.959222,7.1428673 224.513641,6.28391741 224.405113,5.69731215 C224.428093,5.79411232 225.592659,6.78774034 227.89881,8.67819621 L227.72546,9.44435284 L225.117483,9.75167745 C224.875649,9.1992732 224.527687,8.89920763 224.073596,8.85148073 C223.39246,8.77989039 222.697601,9.03986669 223.07246,10.3981996 C223.322366,11.3037549 222.439956,11.5050071 220.425229,11.0019563 L220.425229,5.0019563 Z" id="Rectangle-Copy-3" fill="#F3F8F8" transform="translate(224.162020, 8.136696) rotate(174.000000) translate(-224.162020, -8.136696) "></path>
                                    <path d="M184.432493,0.995641332 L186.296951,1.57628606 C186.502641,2.71091755 186.941524,3.23100631 187.613599,3.13655233 C188.621711,2.99487137 188.520906,2.27760244 188.412377,1.69099718 C188.435357,1.78779735 189.599923,2.78142537 191.906075,4.67188124 L191.732724,5.43803788 L188.961755,5.82747221 C188.844107,4.99036545 188.512191,4.61019277 187.966005,4.68695418 C187.146726,4.8020963 186.602366,5.05835582 186.977225,6.41668877 C187.227131,7.32224406 186.378887,7.51522825 184.432493,6.99564133 L184.432493,0.995641332 Z" id="Rectangle-Copy-4" fill="#F3F8F8" transform="translate(188.169284, 4.137717) rotate(278.000000) translate(-188.169284, -4.137717) "></path>
                                </g>
                                <line x1="14.5" y1="104.088127" x2="17.5" y2="128.088127" id="Line-4" stroke="#314552" stroke-linecap="round"></line>
                                <line x1="193.5" y1="233.088127" x2="193.5" y2="252.088127" id="Line-4-Copy-2" stroke="#314552" stroke-linecap="round"></line>
                                <line x1="185.5" y1="7.08812673" x2="182.5" y2="23.0881267" id="Line-4-Copy" stroke="#314552" stroke-linecap="round"></line>
                                <path d="M25.679188,111.579156 L31.5881239,110.738548 C32.0635555,110.668498 32.2673119,110.038042 31.9277179,109.687788 L30.9089359,108.637028 C33.286094,106.605559 36.7499529,106.74566 38.9912734,109.057332 C38.9912734,109.057332 38.9912734,109.057332 38.9912734,109.057332 C39.466705,109.547687 40.2138119,108.987282 39.9421366,108.426876 C39.5346238,107.516218 38.9912734,106.605559 38.3120854,105.905052 C35.4594957,102.962925 30.8410171,102.822823 27.8525897,105.484748 L26.8338077,104.433989 C26.4942137,104.083735 25.8829444,104.293887 25.8150256,104.784242 L25,110.87865 C25,111.298954 25.339594,111.649207 25.679188,111.579156 Z" id="Path" fill="#314552" fill-rule="nonzero"></path>
                                <path d="M25.3663112,123.533892 L25.0112249,124.868162 C24.8691904,125.335156 25.3663112,125.735437 25.863432,125.535297 L31.6158293,123.333752 C31.9709156,123.200325 32.1129501,122.733331 31.8998983,122.466477 L28.0649668,117.796533 C27.7808977,117.396252 27.1417425,117.529679 26.999708,117.996674 L26.5736045,119.397657 C23.5908799,118.330241 21.8864659,115.328134 22.7386729,112.326028 C22.7386729,112.326028 22.7386729,112.326028 22.7386729,112.326028 C22.9517246,111.725607 22.0995176,111.325326 21.6734141,111.79232 C21.0342588,112.526168 20.6081553,113.460157 20.3240863,114.394146 C19.116793,118.263528 21.3893451,122.266336 25.3663112,123.533892 Z" id="Path" fill="#314552" fill-rule="nonzero"></path>
                                <path d="M37.974104,111.962865 L35.7028485,117.346505 C35.4963707,117.811758 35.9093263,118.277011 36.3911077,118.144081 L37.8364522,117.745293 C38.3182336,120.66974 36.4599337,123.594186 33.431593,124.391762 C33.431593,124.391762 33.431593,124.391762 33.431593,124.391762 C32.8121596,124.524692 32.8809856,125.455197 33.5004189,125.521662 C34.4639818,125.654591 35.4963707,125.588127 36.5287596,125.322268 C40.5206632,124.258833 42.9295706,120.470346 42.1724854,116.615394 L43.5490039,116.28307 C44.0307854,116.150141 44.1684372,115.551959 43.7554817,115.2861 L38.937667,111.697007 C38.5935373,111.497612 38.1117559,111.564077 37.974104,111.962865 Z" id="Path" fill="#314552" fill-rule="nonzero"></path>
                            </g>
                            <circle id="Oval-Copy" stroke="#314552" stroke-width="2" fill="#F3F7F7" cx="663" cy="355" r="42"></circle>
                            <circle id="Oval-Copy-10" fill="#00ADDB" cx="655" cy="350" r="13"></circle>
                            <circle id="Oval-Copy-12" fill="#03A988" cx="673" cy="364" r="9"></circle>
                            <circle id="Oval" stroke="#314552" stroke-width="2" fill="#F3F7F7" cx="493" cy="454" r="42"></circle>
                            <circle id="Oval-Copy-13" fill="#00ADDB" cx="480" cy="445" r="13"></circle>
                            <circle id="Oval-Copy-7" fill="#03A988" cx="488" cy="470" r="9"></circle>
                            <circle id="Oval-Copy-9" fill="#03A988" cx="508" cy="451" r="13"></circle>
                        </g>
                        <g id="Group-8" transform="translate(624.122432, 484.000000)">
                            <g id="Group-7" fill="#314552" fill-rule="nonzero">
                                <g id="noun-truck-1626453-FFFFFF" transform="translate(43.877568, 57.000000)">
                                    <path d="M1.85337314,11.6805556 L1.35974161,11.6805556 C0.608710995,11.6805556 0,12.2214861 0,12.8888889 C0,13.5562917 0.608710995,14.0972222 1.35974161,14.0972222 L1.85337314,14.0972222 C2.60422246,14.0972222 3.21311475,13.5562917 3.21311475,12.8888889 C3.21311475,12.2216472 2.60440376,11.6805556 1.85337314,11.6805556 Z" id="Path"></path>
                                    <path d="M12.7805863,14.0972222 C13.4858004,14.0972222 14.057377,13.5562917 14.057377,12.8888889 C14.057377,12.2214861 13.4858004,11.6805556 12.7805863,11.6805556 L5.6948235,11.6805556 C4.98977967,11.6805556 4.41803279,12.2214861 4.41803279,12.8888889 C4.41803279,13.5562917 4.98977967,14.0972222 5.6948235,14.0972222 L12.7805863,14.0972222 Z" id="Path"></path>
                                    <path d="M6.18160387,9.26388889 L6.67085515,9.26388889 C7.42309544,9.26388889 8.03278689,8.72295833 8.03278689,8.05555556 C8.03278689,7.38815278 7.42309544,6.84722222 6.67085515,6.84722222 L6.18160387,6.84722222 C5.42936357,6.84722222 4.81967213,7.38815278 4.81967213,8.05555556 C4.81967213,8.72295833 5.42936357,9.26388889 6.18160387,9.26388889 Z" id="Path"></path>
                                    <path d="M13.9509981,6.84722222 L10.1473626,6.84722222 C9.42308953,6.84722222 8.83606557,7.38815278 8.83606557,8.05555556 C8.83606557,8.72295833 9.42308953,9.26388889 10.1473626,9.26388889 L13.9509981,9.26388889 C14.6752711,9.26388889 15.2622951,8.72295833 15.2622951,8.05555556 C15.2622951,7.38815278 14.6752711,6.84722222 13.9509981,6.84722222 Z" id="Path"></path>
                                    <path d="M6.67340961,16.5138889 L6.17904941,16.5138889 C5.42822002,16.5138889 4.81967213,17.0548194 4.81967213,17.7222222 C4.81967213,18.389625 5.42822002,18.9305556 6.17904941,18.9305556 L6.67340961,18.9305556 C7.42423899,18.9305556 8.03278689,18.389625 8.03278689,17.7222222 C8.03278689,17.0548194 7.42405774,16.5138889 6.67340961,16.5138889 Z" id="Path"></path>
                                    <path d="M13.9496715,16.5138889 L10.1485142,16.5138889 C9.42378005,16.5138889 8.83606557,17.0548194 8.83606557,17.7222222 C8.83606557,18.389625 9.42378005,18.9305556 10.1485142,18.9305556 L13.9498465,18.9305556 C14.6747556,18.9305556 15.2622951,18.389625 15.2622951,17.7222222 C15.2621242,17.0548194 14.6745806,16.5138889 13.9496715,16.5138889 Z" id="Path"></path>
                                    <path d="M48.6609662,13.9912675 L42.4579836,7.20584022 C42.2131383,6.93790438 41.8669792,6.78542723 41.5041657,6.78542723 L34.1703525,6.78542723 L34.1703525,1.2925444 C34.1703525,0.578629041 33.591798,0 32.8779747,0 L9.32568164,0 C8.6118583,0 8.03330384,0.578629041 8.03330384,1.2925444 C8.03330384,2.00645975 8.6118583,2.58508879 9.32568164,2.58508879 L31.5855969,2.58508879 L31.5855969,23.1675658 L20.4392691,23.1675658 C19.8812635,21.2922131 18.1424553,19.9202203 16.0882639,19.9202203 C14.0342448,19.9202203 12.2956089,21.2922131 11.7372586,23.1675658 L9.32516469,23.1675658 C8.61134135,23.1675658 8.03278689,23.7461948 8.03278689,24.4601101 C8.03278689,25.1740255 8.61134135,25.7526545 9.32516469,25.7526545 L11.7372586,25.7526545 C12.2952643,27.6281795 14.0340724,29 16.0882639,29 C18.142283,29 19.8809188,27.6280072 20.4392691,25.7526545 L35.9417716,25.7526545 C36.4997773,27.6281795 38.2385855,29 40.2927769,29 C42.346796,29 44.0854319,27.6280072 44.6437822,25.7526545 L47.7076222,25.7526545 C48.4214455,25.7526545 49,25.1740255 49,24.4601101 L49,14.8633989 C49,14.5405988 48.8791756,14.2294058 48.6614229,13.9912761 L48.6609662,13.9912675 Z M16.0883069,26.4147733 C15.0106362,26.4147733 14.1337578,25.5379112 14.1337578,24.4599723 C14.1337578,23.3821626 15.0105069,22.5051712 16.0883069,22.5051712 C17.1659777,22.5051712 18.0428561,23.3820333 18.0428561,24.4599723 C18.0428561,25.537782 17.166107,26.4147733 16.0883069,26.4147733 Z M40.29282,26.4147733 C39.2149769,26.4147733 38.3382709,25.5379112 38.3382709,24.4599723 C38.3382709,23.3821626 39.21502,22.5051712 40.29282,22.5051712 C41.3706631,22.5051712 42.2473691,23.3820333 42.2473691,24.4599723 C42.2473691,25.537782 41.37062,26.4147733 40.29282,26.4147733 Z M44.6438252,23.1675141 C44.0858196,21.2920752 42.3470114,19.9200824 40.29282,19.9200824 C38.2388009,19.9200824 36.500165,21.2920752 35.9418147,23.1675141 L34.1703525,23.1675141 L34.1703525,9.37037815 L40.9346579,9.37037815 L44.7746139,13.5708028 L37.4541552,13.5708028 C36.7403319,13.5708028 36.1617774,14.1494318 36.1617774,14.8633472 C36.1617774,15.5772625 36.7403319,16.1558916 37.4541552,16.1558916 L46.4150721,16.1558916 L46.4150721,23.1675141 L44.6438252,23.1675141 Z" id="Shape"></path>
                                </g>
                                <g id="noun-city-2969319-FFFFFF" transform="translate(0.000000, 15.000000)">
                                    <path d="M12.0543727,25.0838701 C11.6394617,25.0848035 11.2603482,25.319497 11.075048,25.6905352 L9.18610004,29.464458 L1.09593176,29.464458 C0.490758244,29.464458 0,29.9547002 0,30.5592372 L0,69.9690987 C0,70.5736358 0.490758244,71.064049 1.09593176,71.064049 L44.9323256,71.064049 C46.3616398,71.0325741 46.3616398,68.9059764 44.9323256,68.8744906 L41.643522,68.8744906 L41.643522,66.5383193 C43.5261136,66.0480772 44.9323256,64.3350981 44.9323256,62.3078736 C44.9323256,61.1051492 44.5432698,59.2308434 43.9091637,57.4304133 C43.5920273,56.5301107 43.2175431,55.6767084 42.7351577,54.9692183 C42.4491897,54.5499529 42.0978077,54.132588 41.643522,53.8583678 L41.643522,39.3161967 C41.6440357,38.711178 41.153246,38.2204103 40.5475903,38.2204103 C38.0041275,38.1315232 36.3415141,38.0870796 35.5597501,38.0870796 C35.4686383,36.3989182 35.3617814,35.0353021 34.3564834,35.0353021 C33.3511855,35.0353021 33.4535964,35.6716771 33.3698188,38.184922 C31.5233914,38.184922 28.436323,38.1967514 24.1086138,38.2204103 L24.1086138,26.178715 C24.1084426,25.5736962 23.6171542,25.0838701 23.0116738,25.0838701 L12.0543727,25.0838701 Z M12.7340257,27.2748559 L21.915742,27.2748559 L21.915742,68.8742757 L16.4391518,68.8742757 L16.4391518,61.2130109 C16.4391518,60.6084738 15.9483936,60.1182317 15.34322,60.1182317 L8.7654376,60.1182317 C8.16026408,60.1182317 7.66950583,60.6084738 7.66950583,61.2130109 L7.66950583,68.8742757 L2.19203888,68.8742757 L2.19203888,31.6548485 L9.86136936,31.6548485 C10.2778234,31.6558748 10.6589885,31.4210124 10.84499,31.0486035 L12.7340257,27.2748559 Z M24.1084823,40.4113304 L39.4506502,40.4113304 L39.4506502,53.8600359 C38.9986003,54.1342431 38.648735,54.5512795 38.3632667,54.9698793 C37.8808814,55.6771942 37.5074317,56.5308155 37.1902691,57.4310743 C36.5561629,59.2312854 36.1671072,61.1055912 36.1671072,62.3085346 C36.1671072,64.3355839 37.5690231,66.0483879 39.4506502,66.5389803 L39.4506502,68.8749764 L31.7821527,68.8749764 L31.7821527,66.5389803 C33.6645689,66.0483879 35.069948,64.3354088 35.069948,62.3085346 C35.069948,61.1058101 34.6766093,59.2315044 34.04249,57.4310743 C33.7253537,56.5309468 33.3518776,55.6773694 32.8694923,54.9698793 C32.387107,54.2623892 31.728189,53.5478487 30.6851688,53.5478487 C29.6421486,53.5478487 28.9832306,54.2623454 28.5008453,54.9697041 C28.01846,55.6770191 27.6450103,56.5306403 27.3278476,57.4308991 C26.6937415,59.2311102 26.3003897,61.105416 26.3003897,62.3083594 C26.3003897,64.3355839 27.7066016,66.0483879 29.5891932,66.5388052 L29.5891932,68.8749764 L24.1086576,68.8749764 L24.1084823,40.4113304 Z M30.6840729,55.7829061 C30.744691,55.8326835 30.8784298,55.9394245 31.0575445,56.2020007 C31.3618365,56.6481451 31.6979632,57.3684661 31.9757161,58.1573639 C32.5315727,59.7353787 32.8779748,61.6965661 32.8779748,62.3075843 C32.8779748,63.1267857 32.4375418,63.8242038 31.7820431,64.1998444 L31.7820431,61.7583117 C31.7911187,61.1406373 31.2873395,60.6378709 30.6689709,60.6474611 C30.0637974,60.656356 29.5802285,61.1536432 29.5891274,61.7583117 L29.5891274,64.2001948 C28.9336287,63.824379 28.4931957,63.127136 28.4931957,62.3079346 C28.4931957,61.6967413 28.8396109,59.7355538 29.3954544,58.1577143 C29.6733739,57.3687726 30.0052308,56.6482765 30.3095491,56.2023511 C30.488151,55.940458 30.6220607,55.8332046 30.6842219,55.7832564 L30.6840729,55.7829061 Z M40.5483355,55.7829061 C40.6103258,55.8328543 40.7444064,55.9401076 40.9230083,56.2020007 C41.2273003,56.6481451 41.5634269,57.3684661 41.8411799,58.1573639 C42.3970365,59.7353787 42.7391425,61.6965661 42.7391425,62.3075843 C42.7391425,63.1267857 42.2987095,63.8242038 41.6432108,64.1998444 L41.6432108,61.7579613 C41.6522864,61.1407686 41.1490332,60.638046 40.5311907,60.6471108 C39.925535,60.6553216 39.44144,61.1529426 39.450339,61.7579613 L39.450339,64.1998444 C38.7948403,63.8240286 38.3544072,63.1267857 38.3544072,62.3075843 C38.3544072,61.696391 38.7008225,59.7352035 39.2566659,58.1573639 C39.5345855,57.3684223 39.8707384,56.6479262 40.1748376,56.2020007 C40.3539523,55.9394245 40.487691,55.8326835 40.5483092,55.7829061 L40.5483355,55.7829061 Z M9.86136936,62.3077901 L14.2459732,62.3077901 L14.2459732,68.8742757 L9.86136936,68.8742757 L9.86136936,62.3077901 Z" id="Shape"></path>
                                    <polygon id="Path" points="4.47829578 34.0358156 6.51388477 34.0358156 6.51388477 36.0703339 4.47829578 36.0703339"></polygon>
                                    <polygon id="Path" points="8.54947377 34.0358156 10.5850628 34.0358156 10.5850628 36.0703339 8.54947377 36.0703339"></polygon>
                                    <polygon id="Path" points="13.0277695 34.0358156 15.0633585 34.0358156 15.0633585 36.0703339 13.0277695 36.0703339"></polygon>
                                    <polygon id="Path" points="17.5060653 34.0358156 19.5416543 34.0358156 19.5416543 36.0703339 17.5060653 36.0703339"></polygon>
                                    <polygon id="Path-Copy-5" points="18.8775683 0 20.9131573 0 20.9131573 2.03451832 18.8775683 2.03451832"></polygon>
                                    <polygon id="Path-Copy-8" points="18.8775683 8 20.9131573 8 20.9131573 10.0345183 18.8775683 10.0345183"></polygon>
                                    <polygon id="Path-Copy-12" points="14.8775683 8 16.9131573 8 16.9131573 10.0345183 14.8775683 10.0345183"></polygon>
                                    <polygon id="Path-Copy-13" points="10.8775683 8 12.9131573 8 12.9131573 10.0345183 10.8775683 10.0345183"></polygon>
                                    <polygon id="Path-Copy-6" points="18.8775683 4 20.9131573 4 20.9131573 6.03451832 18.8775683 6.03451832"></polygon>
                                    <polygon id="Path-Copy-9" points="18.8775683 12 20.9131573 12 20.9131573 14.0345183 18.8775683 14.0345183"></polygon>
                                    <polygon id="Path-Copy-15" points="18.8775683 16 20.9131573 16 20.9131573 18.0345183 18.8775683 18.0345183"></polygon>
                                    <polygon id="Path-Copy-18" points="18.8775683 20 20.9131573 20 20.9131573 22.0345183 18.8775683 22.0345183"></polygon>
                                    <polygon id="Path-Copy-7" points="14.8775683 4 16.9131573 4 16.9131573 6.03451832 14.8775683 6.03451832"></polygon>
                                    <polygon id="Path-Copy-10" points="14.8775683 12 16.9131573 12 16.9131573 14.0345183 14.8775683 14.0345183"></polygon>
                                    <polygon id="Path-Copy-16" points="14.8775683 16 16.9131573 16 16.9131573 18.0345183 14.8775683 18.0345183"></polygon>
                                    <polygon id="Path-Copy-19" points="14.8775683 20 16.9131573 20 16.9131573 22.0345183 14.8775683 22.0345183"></polygon>
                                    <polygon id="Path-Copy-14" points="10.8775683 12 12.9131573 12 12.9131573 14.0345183 10.8775683 14.0345183"></polygon>
                                    <polygon id="Path-Copy-17" points="10.8775683 16 12.9131573 16 12.9131573 18.0345183 10.8775683 18.0345183"></polygon>
                                    <polygon id="Path-Copy-20" points="10.8775683 20 12.9131573 20 12.9131573 22.0345183 10.8775683 22.0345183"></polygon>
                                    <polygon id="Path" points="4.47829578 38.1048522 6.51388477 38.1048522 6.51388477 40.1393705 4.47829578 40.1393705"></polygon>
                                    <polygon id="Path" points="8.54947377 38.1048522 10.5850628 38.1048522 10.5850628 40.1393705 8.54947377 40.1393705"></polygon>
                                    <polygon id="Path" points="13.0277695 38.1048522 15.0633585 38.1048522 15.0633585 40.1393705 13.0277695 40.1393705"></polygon>
                                    <polygon id="Path" points="17.5060653 38.1048522 19.5416543 38.1048522 19.5416543 40.1393705 17.5060653 40.1393705"></polygon>
                                    <polygon id="Path" points="4.47829578 42.5807925 6.51388477 42.5807925 6.51388477 44.6153108 4.47829578 44.6153108"></polygon>
                                    <polygon id="Path" points="8.54947377 42.5807925 10.5850628 42.5807925 10.5850628 44.6153108 8.54947377 44.6153108"></polygon>
                                    <polygon id="Path" points="13.0277695 42.5807925 15.0633585 42.5807925 15.0633585 44.6153108 13.0277695 44.6153108"></polygon>
                                    <polygon id="Path" points="17.5060653 42.5807925 19.5416543 42.5807925 19.5416543 44.6153108 17.5060653 44.6153108"></polygon>
                                    <polygon id="Path" points="4.47829578 47.0567328 6.51388477 47.0567328 6.51388477 49.0912511 4.47829578 49.0912511"></polygon>
                                    <polygon id="Path" points="8.54947377 47.0567328 10.5850628 47.0567328 10.5850628 49.0912511 8.54947377 49.0912511"></polygon>
                                    <polygon id="Path" points="13.0277695 47.0567328 15.0633585 47.0567328 15.0633585 49.0912511 13.0277695 49.0912511"></polygon>
                                    <polygon id="Path" points="17.5060653 47.0567328 19.5416543 47.0567328 19.5416543 49.0912511 17.5060653 49.0912511"></polygon>
                                    <polygon id="Path" points="4.47829578 51.5326731 6.51388477 51.5326731 6.51388477 53.5671914 4.47829578 53.5671914"></polygon>
                                    <polygon id="Path" points="8.54947377 51.5326731 10.5850628 51.5326731 10.5850628 53.5671914 8.54947377 53.5671914"></polygon>
                                    <polygon id="Path" points="13.0277695 51.5326731 15.0633585 51.5326731 15.0633585 53.5671914 13.0277695 53.5671914"></polygon>
                                    <polygon id="Path" points="17.5060653 51.5326731 19.5416543 51.5326731 19.5416543 53.5671914 17.5060653 53.5671914"></polygon>
                                    <polygon id="Path" points="4.47829578 55.6017097 6.51388477 55.6017097 6.51388477 57.6360691 4.47829578 57.6362281"></polygon>
                                    <polygon id="Path" points="8.54947377 55.6017097 10.5850628 55.6017097 10.5850628 57.6360691 8.54947377 57.6362281"></polygon>
                                    <polygon id="Path" points="13.0277695 55.6017097 15.0633585 55.6017097 15.0633585 57.6360691 13.0277695 57.6362281"></polygon>
                                    <polygon id="Path" points="17.5060653 55.6017097 19.5416543 55.6017097 19.5416543 57.6362281 17.5060653 57.6362281"></polygon>
                                    <path d="M28.3963545,47.0567328 C26.9037385,47.0567328 26.9037385,49.0912511 28.3963545,49.0912511 L35.114022,49.0912511 C36.6066381,49.0912511 36.6066381,47.0567328 35.114022,47.0567328 L28.3963545,47.0567328 Z" id="Path"></path>
                                    <path d="M28.3963545,42.5807925 C26.9037385,42.5807925 26.9037385,44.6153108 28.3963545,44.6153108 L35.114022,44.6153108 C36.6066381,44.6153108 36.6066381,42.5807925 35.114022,42.5807925 L28.3963545,42.5807925 Z" id="Path"></path>
                                </g>
                                <g id="noun-factory-1174324-FFFFFF" transform="translate(62.877575, 24.500000) scale(-1, 1) translate(-62.877575, -24.500000) translate(39.877568, 0.000000)">
                                    <path d="M45.2811966,26.6406282 L45.2811966,19.848965 C45.2811966,19.5923966 45.1329903,19.3502062 44.8823118,19.1928929 C44.6292403,19.0355878 44.3070563,18.9838537 43.9950378,19.0480372 L28.6523342,22.3341095 L28.6525339,19.8489237 C28.6525339,19.5902528 28.5017301,19.3461502 28.2486585,19.1909477 C27.995587,19.0336426 27.6707952,18.9840109 27.3564245,19.0522338 L12.3435341,22.4088302 L11.7351438,16.755319 C11.6892032,16.3268772 11.2467749,16 10.717683,16 L4.4026559,16 C3.87331856,16 3.42850544,16.3289963 3.38519509,16.755319 L0.00499372914,48.1020933 C0.00499372914,48.1124401 0.0101868802,48.122787 0.0101868802,48.1352355 C0.0101868802,48.1497856 0,48.1601324 0,48.1745211 C0,48.2283578 0.0255669114,48.275887 0.0383503672,48.3255187 C0.0485372474,48.373048 0.0511338229,48.4207427 0.0741041588,48.4642326 C0.104864221,48.5305185 0.153402491,48.5841896 0.201938716,48.6401288 C0.227505627,48.6690676 0.237692508,48.7064147 0.268453593,48.7332503 C0.273646744,48.7374536 0.281237049,48.7393938 0.2864302,48.7435971 C0.355542675,48.8014732 0.442429267,48.8428605 0.529315858,48.8842479 C0.560075921,48.898798 0.585644878,48.9214319 0.618800048,48.9317771 C0.744037007,48.9752669 0.879664359,49 1.02267544,49 L44.9773096,49 C45.5423895,49 46,48.6296164 46,48.1722531 L46,27.4185695 C46.002383,27.0481859 45.6955813,26.7460252 45.2815047,26.6404461 L45.2811966,26.6406282 Z M11.7162368,28.2464985 L26.7048092,28.2464985 C26.7549412,28.252642 26.7999164,28.2692938 26.8527303,28.2692938 C26.9055441,28.2692938 26.9505204,28.2528035 27.0006513,28.2464985 L43.7162368,28.2464985 L43.7162368,30.6737835 L11.9883127,30.6739451 L11.7162368,28.2464985 Z M43.7144437,20.923008 L43.7144437,26.5910047 L27.7144437,26.5910047 L27.7144437,24.0477939 L43.7144437,20.923008 Z M26.9776798,20.9354565 L26.9776798,26.591037 L11.2856971,26.591037 L10.9776798,24.084992 L26.9776798,20.9354565 Z M2.10001735,47.3447206 L1.76761797,47.3447206 L4.71793425,17.6534401 L8.81470737,17.6534401 L11.767618,47.3447206 L2.10001735,47.3447206 Z M13.7772289,47.3447206 L12.0817057,32.3273229 L44.0817057,32.3273229 L44.0817057,47.3447206 L13.7772289,47.3447206 Z" id="Shape"></path>
                                    <path d="M32.2342055,36 L27.7657945,36 C27.3426548,36 27,36.3680274 27,36.8224812 L27,41.1775188 C27,41.6319808 27.3446075,42 27.7657945,42 L32.2342055,42 C32.6573452,42 33,41.6319726 33,41.1775188 L33,36.8224812 C33,36.3680192 32.6553925,36 32.2342055,36 L32.2342055,36 Z M31.4664582,40.3550377 L28.5316273,40.3550377 L28.5316273,37.6450446 L31.4664582,37.6450446 L31.4664582,40.3550377 Z" id="Shape"></path>
                                    <path d="M21.2332268,36 L16.7667732,36 C16.3430927,36 16,36.3680274 16,36.8224812 L16,41.1775188 C16,41.6319808 16.3450479,42 16.7667732,42 L21.2332268,42 C21.6569073,42 22,41.6319726 22,41.1775188 L22,36.8224812 C22,36.3680192 21.6568997,36 21.2332268,36 L21.2332268,36 Z M20.4644984,40.3550377 L17.5335463,40.3550377 L17.5335463,37.6450446 L20.4644984,37.6450446 L20.4644984,40.3550377 Z" id="Shape"></path>
                                    <path d="M22.8061051,14 C24.4723625,14 25.8289387,12.5957022 25.8289387,10.8677498 C25.8289387,10.2146812 25.6297349,9.58652839 25.2734525,9.06271296 C25.7484393,8.20096958 26,7.23063185 26,6.22047898 C26,3.05287928 23.5145805,0.475662267 20.457615,0.475662267 C19.5661645,0.475662267 18.698743,0.694770786 17.9138737,1.11829712 C16.3983916,-0.225526731 14.0115436,-0.377817586 12.3473389,0.767790266 C11.6891756,0.337878483 10.9264839,0.108336224 10.14572,0.108336224 C7.85949632,0.108336224 6,2.03644946 6,4.40494996 C6,6.77345045 7.85949632,8.70156369 10.14572,8.70156369 C10.7192784,8.70156369 11.2807216,8.58059909 11.7959581,8.3489367 C12.8806475,9.35057564 14.4744555,9.80348339 15.8974035,9.48212422 C16.8130844,10.8530341 18.2721363,11.7441171 19.9606116,11.9257476 C20.3811808,13.1464951 21.5042685,14 22.8062258,14 L22.8061051,14 Z M16.9779472,8.11328444 C16.8350285,7.83157349 16.5553252,7.66676214 16.2655676,7.66676214 C16.1690327,7.66676214 16.0723368,7.68339102 15.9778466,7.72105098 C14.8184537,8.17800701 13.3573892,7.7689794 12.5706282,6.78610449 C12.3090051,6.46053844 11.8582486,6.38750227 11.5140733,6.61916466 C11.1115762,6.89044188 10.6365894,7.03439409 10.1455832,7.03439409 C8.74895854,7.03439409 7.61190425,5.85538158 7.61190425,4.40722034 C7.61190425,2.9590591 8.7469058,1.78004659 10.1455832,1.78004659 C10.761444,1.78004659 11.3590314,2.01578231 11.8239558,2.44162911 C12.129918,2.71909979 12.5866476,2.71909979 12.8926259,2.43739051 C14.1081268,1.30841821 16.1185595,1.44192833 17.1852573,2.71078786 C17.4528535,3.0299935 17.9118048,3.09471607 18.2459177,2.85261993 C18.8999754,2.38927845 19.6647199,2.14312568 20.4575989,2.14312568 C22.6251263,2.14312568 24.3879025,3.97115849 24.3879025,6.22058916 C24.3879025,7.1012802 24.1203064,7.94002761 23.6151484,8.64334509 C23.361543,8.99189875 23.4118551,9.48438793 23.7338528,9.77231739 C24.039815,10.0497881 24.2168493,10.4483819 24.2168493,10.86786 C24.2168493,11.6755149 23.5849691,12.3307119 22.8060568,12.3307119 C22.087519,12.3307119 21.4837733,11.7734668 21.4032739,11.0347998 C21.3589348,10.6112735 20.9262344,10.2940043 20.5177803,10.2940043 C19.0145342,10.2940043 17.660212,9.45717674 16.9780196,8.11335289 L16.9779472,8.11328444 Z" id="Shape" transform="translate(16.000000, 7.000000) scale(-1, 1) translate(-16.000000, -7.000000) "></path>
                                </g>
                            </g>
                            <polyline id="Path-5" stroke="#314552" stroke-width="2" stroke-linecap="round" stroke-linejoin="round" points="34.3389888 46.5 34.3389888 10.7338677 18.5238598 10.7338677 8.54947377 19 8.54947377 35.0833521 4.61767475 42.0126077"></polyline>
                            <line x1="23.8775683" y1="16" x2="30.8775683" y2="16" id="Line-7" stroke="#314552" stroke-linecap="round"></line>
                            <line x1="23.8775683" y1="24" x2="30.8775683" y2="24" id="Line-7-Copy-2" stroke="#314552" stroke-linecap="round"></line>
                            <line x1="23.8775683" y1="20" x2="30.8775683" y2="20" id="Line-7-Copy" stroke="#314552" stroke-linecap="round"></line>
                            <line x1="23.8775683" y1="28" x2="30.8775683" y2="28" id="Line-7-Copy-3" stroke="#314552" stroke-linecap="round"></line>
                        </g>
                    </g>
                    <g id="Group" transform="translate(815.961978, 377.997862)" stroke="#314552">
                        <line x1="5.53802183" y1="4.28262547" x2="5.53802183" y2="21.5021377" id="Line" stroke-linecap="round" stroke-linejoin="round"></line>
                        <line x1="51.3457141" y1="28.5021377" x2="58.7303295" y2="28.5021377" id="Line-Copy-8" stroke-width="2" stroke-linecap="square" stroke-linejoin="round"></line>
                        <path d="M39.7079944,29.9576492 C20.5406058,29.9943469 9.17072982,30.0059931 5.59836643,29.9925879 C3.63304412,29.9852131 2.47634171,29.9735669 2.12825921,29.9576492 C0.831113131,29.8983313 0.134367338,29.2936348 0.0380218265,28.1435595 C-0.0126739422,11.371383 -0.0126739422,2.62712281 0.0380218265,1.9107788 C0.114065479,0.836262801 0.596362552,-0.0493525467 2.02959432,0.00213766151 C8.31665187,0.00213766151 25.9637519,0.00213766151 54.9708943,0.00213766151 C55.9795347,0.00213766151 58.0380218,0.00213766151 58.0380218,2.12165087 C58.0380218,3.53465968 58.0380218,5.36320188 58.0380218,7.60727748" id="Path-8" stroke-width="3" stroke-linecap="round"></path>
                        <path d="M43.8692819,29.9697469 L43.8692819,23.7431925 C41.3097238,20.6160214 40.0299447,18.1702599 40.0299447,16.4059079 C39.9524127,15.7373215 39.1305237,15.7373215 37.5642776,16.4059079 C36.0755419,16.5468247 35.0753022,16.3296334 34.5635584,15.754334 C33.7959427,14.8913849 33.8089862,14.6301528 35.0055199,13.0141332 C35.8032091,11.9367868 36.8111893,10.9140891 38.0294606,9.94604012 L38.0294606,8.00213766 C39.6577391,9.92262036 40.8595619,10.8828617 41.6349289,10.8828617 C42.7979794,10.8828617 45.3682085,11.7772121 50.988851,11.7772121 C56.6094935,11.7772121 61.3315182,10.0909332 63.7274046,11.7772121 C66.123291,13.4634909 66.5187166,16.1220284 65.5417588,17.562083 C64.564801,19.0021377 64.1460795,19.351328 64.6112998,20.9861168 C64.9214466,22.075976 64.6268148,25.0813163 63.7274046,30.0021377 L60.9128153,30.0021377 C61.7008692,26.8946717 61.908808,24.9427903 61.5366319,24.1464935 C60.9783676,22.9520483 59.6042015,25.645408 58.210305,24.8491097 C56.8164086,24.0528113 56.000502,22.8349479 56.000502,21.593657 C53.7441817,21.6639163 49.5518642,21.9229384 48.4818577,21.4297109 C47.4118512,20.9364833 46.5459118,22.866881 46.5459118,24.1464935 C46.5459118,24.9995685 46.5071458,26.9406529 46.4296137,29.9697469 L43.8692819,29.9697469 Z" id="Path-9" stroke-width="2"></path>
                    </g>
                    <circle id="Oval-Copy-2" stroke="#314552" stroke-width="2" fill="#F3F7F7" cx="847" cy="446" r="42"></circle>
                    <circle id="Oval-Copy-11" fill="#00ADDB" cx="845.5" cy="433.5" r="8.5"></circle>
                    <circle id="Oval-Copy-18" fill="#03A988" cx="852" cy="457" r="13"></circle>
                    <path d="M863.43058,360.560285 C869.704779,364.707725 873.306629,368.41772 874.236128,371.690268 C874.236128,372.931775 873.420622,373.552528 871.78961,373.552528 L817.67795,373.552528 C816.716543,373.552528 816.235839,373.113234 816.235839,372.234645 C816.541661,365.465148 830.719447,355.639621 843.983569,355.639621 C846.267964,355.340901 853.82151,355.771755 857.136893,357.539419" id="Path-10" stroke="#314552" stroke-width="3" stroke-linecap="round"></path>
                </g>
                <g id="Group-4" transform="translate(651.000000, 237.469834)" stroke="#314552">
                    <line x1="0.5" y1="443.030166" x2="0.5" y2="415.530166" id="Line-3" stroke-width="3" stroke-linecap="round"></line>
                    <line x1="51.5" y1="450.530166" x2="51.5" y2="428.030166" id="Line-3-Copy" stroke-width="3" stroke-linecap="round"></line>
                    <line x1="51.5" y1="421.030166" x2="51.5" y2="415.030166" id="Line-3-Copy-2" stroke-width="3" stroke-linecap="round"></line>
                    <path d="M26,422.530166 C40.0832611,422.530166 51.5,418.948444 51.5,414.530166 C51.5,412.633766 49.3967266,410.891483 45.8820893,409.520386 C45.193933,409.251929 41.5956585,408.185512 40.4577656,407.939367 C36.3490292,407.050579 31.3682333,406.530166 26,406.530166 C11.9167389,406.530166 0.5,410.111888 0.5,414.530166 C0.5,416.404327 2.55423407,418.127966 5.99484965,419.491559 C10.6653801,421.342594 17.8906281,422.530166 26,422.530166 Z" id="Oval" stroke-width="3" fill="#F3F8F8"></path>
                    <path d="M0,432.530166 C3.83675445,436.509493 13.0232732,439.530166 26.2025377,439.530166 C39.3818023,439.530166 47.6913396,436.502649 52,432.530166" id="Path-3" stroke-width="3"></path>
                    <path d="M6,414.722474 C8.95134957,416.996375 16.0179024,418.722474 26.1557983,418.722474 C36.2936941,418.722474 42.6856459,416.992464 46,414.722474" id="Path-3-Copy-2" stroke-linecap="round"></path>
                    <path d="M170.659948,132.722474 C180.838865,131.816778 187.7711,127.587279 191.168058,123.047299" id="Path-3-Copy-8" stroke-linecap="round" transform="translate(180.914003, 127.884886) scale(-1, -1) translate(-180.914003, -127.884886) "></path>
                    <path d="M14.0763237,0.69196831 C15.0362584,1.29142534 17.3883571,1.66541158 19.8344313,1.69115626 C22.2805055,1.71690094 24.4171053,1.12467852 25.4933908,0.743390253" id="Path-3-Copy-3" stroke-linecap="round" transform="translate(19.784857, 1.191968) scale(1, -1) rotate(-7.000000) translate(-19.784857, -1.191968) "></path>
                    <path d="M15.3368886,2.69239777 C16.299128,3.28928314 17.4733987,3.664498 18.7588817,3.69024268" id="Path-3-Copy-7" stroke-linecap="round" transform="translate(17.047885, 3.191320) scale(-1, 1) rotate(162.000000) translate(-17.047885, -3.191320) "></path>
                    <path d="M0.5,449.13625 C0.5,450.482645 1.96798163,451.7859 2.56682497,452.225025 C7.04732451,455.510519 14.5770794,457.530166 26.2025377,457.530166 C39.3818023,457.530166 47.1916627,455.43113 51.5,451.458647" id="Path-3-Copy" stroke-width="3" stroke-linecap="round" stroke-linejoin="round"></path>
                </g>
                <path d="M642.076324,259.161802 C643.036258,259.761259 645.388357,260.135245 647.834431,260.16099 C650.280506,260.186735 652.417105,259.594512 653.493391,259.213224" id="Path-3-Copy-5" stroke="#314552" stroke-linecap="round" transform="translate(647.784857, 259.661802) scale(1, -1) rotate(112.000000) translate(-647.784857, -259.661802) "></path>
                <path d="M649.336889,261.162232 C650.299128,261.759117 651.473399,262.134332 652.758882,262.160077" id="Path-3-Copy-6" stroke="#314552" stroke-linecap="round" transform="translate(651.047885, 261.661154) scale(1, -1) rotate(107.000000) translate(-651.047885, -261.661154) "></path>
                <circle id="Oval-Copy-4" stroke="#314552" stroke-width="2" fill="#F3F7F7" cx="676" cy="729" r="42"></circle>
                <path d="M813,399 L814.539665,398.5 C814.585949,399.793884 815.060053,400.440826 815.961978,400.440826 C817.314866,400.440826 817.625248,398.912474 817.516719,398.325869 C817.444367,397.934798 818.605461,398.159509 821,399 L821,405 L817.516719,405 C817.430486,403.658297 816.912239,402.987445 815.961978,402.987445 C815.011717,402.987445 814.537613,403.658297 814.539665,405 L813,405 L813,399 Z" id="Rectangle-Copy-5" fill="#F3F8F8"></path>
                <path d="M838.309076,565.265652 C831.888769,577.614316 834.546089,587.537019 846.281035,595.033762" id="Path-4" stroke="#314552" stroke-linecap="round"></path>
                <path d="M852,534.148941 C864.572831,550.82067 871.941327,562.295762 874.105488,568.574216 C879.718446,584.857982 872.375935,597.38185 852,602 C834.150337,599.083312 825.033783,585.570232 828.777839,572.475981 C830.63476,565.98169 837.179192,554.980831 848.411137,539.473406" id="Path-2" stroke="#314552" stroke-width="3" stroke-linecap="round"></path>
                <rect id="Rectangle" fill="#F3F8F8" x="833" y="573" width="8" height="4"></rect>
                <rect id="Rectangle" fill="#F3F8F8" x="493" y="409" width="8" height="4"></rect>
                <circle id="Oval-Copy-3" stroke="#314552" stroke-width="2" fill="#F3F7F7" cx="851" cy="640" r="42"></circle>
                <circle id="Oval-Copy-24" fill="#00ADDB" cx="833" cy="639" r="13"></circle>
                <circle id="Oval-Copy-25" fill="#00ADDB" cx="854" cy="652" r="9"></circle>
                <circle id="Oval-Copy-20" fill="#03A988" cx="857" cy="631" r="9"></circle>
                <g id="Group-7" transform="translate(659.000000, 703.000000)">
                    <circle id="Oval-Copy-22" fill="#00ADDB" cx="13" cy="31" r="13"></circle>
                    <circle id="Oval-Copy-23" fill="#03A988" cx="20" cy="9" r="9"></circle>
                </g>
            </g>
        </g>
    </g>
</svg>